<?xml version="1.0" standalone="no"?>
<!DOCTYPE svg PUBLIC "-//W3C//DTD SVG 20010904//EN"
 "http://www.w3.org/TR/2001/REC-SVG-20010904/DTD/svg10.dtd">
<svg version="1.0" xmlns="http://www.w3.org/2000/svg"
 width="174.352601pt" height="174.476196pt" viewBox="0 0 174.352601 174.476196"
 preserveAspectRatio="xMidYMid meet">
<metadata>
Created by potrace 1.16, written by Peter Selinger 2001-2019
</metadata>
<g transform="translate(-24.126320,198.562830) scale(0.100000,-0.100000)"
fill="#000000" stroke="none">
<path fill="#000000" stroke="none" d="M951 1975 c-166 -31 -340 -123 -462
-244 -46 -46 -126 -154 -153 -209 -15 -29 -41 -94 -58 -145 -28 -82 -32 -107
-36 -232 -4 -156 6 -218 58 -354 40 -103 96 -189 184 -280 84 -86 158 -139
270 -192 120 -56 198 -72 356 -72 105 0 153 5 217 21 99 26 243 96 316 156
l54 44 5 -62 c3 -34 13 -77 22 -94 49 -95 191 -95 243 0 17 30 18 68 18 473 0
488 -1 495 -66 660 -100 253 -327 451 -599 521 -82 21 -280 26 -369 9z"/>
<path fill="#ffffff" stroke="none" d="M1333 1884 c288 -86 501 -318 562 -612
6 -31 6 -32 -20 -22 -14 5 -95 10 -178 10 l-152 0 -25 57 c-44 102 -155 196
-282 239 -76 26 -196 23 -271 -6 -82 -31 -175 -97 -219 -156 -42 -55 -84 -163
-93 -239 -8 -66 15 -177 53 -251 37 -71 129 -164 197 -197 125 -62 281 -62
413 0 73 34 173 137 203 207 l23 56 78 0 78 0 0 -199 0 -199 -60 -54 c-231
-210 -603 -259 -887 -117 -212 106 -358 292 -418 534 -24 96 -27 122 -22 210
20 350 230 626 559 734 139 46 317 48 461 5z"/>
<path fill="#ffffff" stroke="none" d="M1191 1486 c104 -24 197 -92 243 -175
l27 -51 -173 0 c-95 0 -190 -5 -210 -10 -45 -13 -95 -68 -104 -114 -10 -54 26
-119 80 -145 38 -19 61 -21 225 -21 l182 0 -28 -51 c-101 -186 -372 -237 -551
-104 -68 50 -126 141 -143 224 -40 195 90 400 285 447 67 16 100 16 167 0z"/>
<path fill="#ffffff" stroke="none" d="M1878 1163 c34 -30 37 -59 8 -88 l-25
-25 -382 0 c-379 0 -383 0 -406 22 -29 27 -29 55 -1 85 l21 23 383 0 c349 0
384 -1 402 -17z"/>
<path fill="#ffffff" stroke="none" d="M1920 691 c0 -192 -4 -309 -11 -330
-19 -53 -73 -68 -109 -29 -19 21 -20 34 -20 330 l0 308 38 1 c20 0 46 4 57 9
46 20 45 26 45 -289z"/>
</g>
</svg>
